#!OML:ASF H:\MichaelJackson\Top Level 1\Subject 1\Session 1\male.ASF
:FULLY-SPECIFIED
:DEGREES
655
root 8.70493 16.2188 -4.03604 -177.328 72.8148 -181.233
lowerback 3.95893 -0.759593 -0.549008
upperback 3.29699 -0.903972 4.20263
thorax 1.25182 -0.446997 4.67405
lowerneck -5.07479 -11.9645 -3.06003
upperneck 18.6318 -16.2246 3.50392
head 7.08294 -7.56189 0.341937
rclavicle -3.29983e-014 -1.11319e-014
rhumerus 15.1492 24.665 -83.562
rradius 132.813
rwrist -40.1209
rhand -25.8848 -18.3729
rfingers 7.12502
rthumb 0.657045 311.648
lclavicle -3.29983e-014 -1.11319e-014
lhumerus -37.2457 -20.8768 87.4872
lradius 44.2207
lwrist 15.0472
lhand -10.8286 5.31946
lfingers 7.12502
lthumb 15.1856 34.7422
rfemur -45.4529 -1.66482 7.1386
rtibia 75.6974
rfoot 17.7709 -4.67537
rtoes -9.69212
lfemur -19.8947 -10.5767 -21.8777
ltibia 48.4317
lfoot -31.4417 6.48351
ltoes -6.28971
656
root 8.6768 16.2148 -4.03442 -177.357 73.1776 -181.206
lowerback 3.52108 -0.831949 -0.4751
upperback 3.18062 -1.0112 4.18112
thorax 1.38357 -0.502787 4.60616
lowerneck -5.08554 -12.04 -3.02406
upperneck 18.7116 -16.3306 3.46054
head 7.10782 -7.61097 0.310941
rclavicle 7.15625e-015 1.74931e-014
rhumerus 14.9542 24.4483 -83.6143
rradius 132.88
rwrist -39.9326
rhand -25.8064 -18.2202
rfingers 7.12502
rthumb 0.732738 311.801
lclavicle 7.15625e-015 1.74931e-014
lhumerus -36.3759 -20.9899 87.162
lradius 43.93
lwrist 14.9622
lhand -11.2456 5.08198
lfingers 7.12502
lthumb 14.7839 34.5347
rfemur -43.8374 -1.26457 6.89384
rtibia 74.5822
rfoot 18.6369 -5.595
rtoes -14.2934
lfemur -19.9286 -10.1916 -21.8831
ltibia 48.4638
lfoot -31.4681 6.54049
ltoes -6.54088
657
root 8.64769 16.205 -4.03388 -177.397 73.7187 -181.223
lowerback 3.09773 -0.872728 -0.416917
upperback 3.06085 -1.07726 4.14001
thorax 1.50011 -0.538011 4.52534
lowerneck -5.11986 -12.1077 -2.954
upperneck 18.7993 -16.4291 3.4069
head 7.13519 -7.65454 0.270947
rclavicle -5.36719e-015 -1.11319e-014
rhumerus 14.796 24.2225 -83.6764
rradius 132.947
rwrist -39.8445
rhand -25.7124 -18.1686
rfingers 7.12502
rthumb 0.823549 311.853
lclavicle -5.36719e-015 -1.11319e-014
lhumerus -35.635 -21.1303 86.9166
lradius 43.7423
lwrist 15.0681
lhand -11.7066 4.83021
lfingers 7.12502
lthumb 14.3398 34.315
rfemur -42.2582 -0.745905 6.72688
rtibia 73.1354
rfoot 18.432 -6.21031
rtoes -20.9732
lfemur -20.0222 -9.74014 -21.9172
ltibia 48.5843
lfoot -31.5098 6.7272
ltoes -6.73054
658
root 8.61691 16.1911 -4.0345 -177.429 74.4772 -181.27
lowerback 2.68933 -0.879949 -0.366714
upperback 2.93708 -1.09894 4.07994
thorax 1.60031 -0.550896 4.42855
lowerneck -5.16591 -12.1619 -2.86443
upperneck 18.887 -16.5109 3.34614
head 7.16154 -7.68956 0.226804
rclavicle -2.06736e-014 2.38542e-014
rhumerus 14.6821 24.0091 -83.7161
rradius 133.022
rwrist -39.9233
rhand -25.6011 -18.245
rfingers 7.12502
rthumb 0.930978 311.777
lclavicle -2.06736e-014 2.38542e-014
lhumerus -35.0394 -21.2927 86.7449
lradius 43.672
lwrist 15.3581
lhand -12.1526 4.5982
lfingers 7.12502
lthumb 13.91 34.113
rfemur -40.8006 -0.134266 6.654
rtibia 71.5111
rfoot 17.1407 -6.66675
rtoes -28.0038
lfemur -20.1676 -9.20519 -21.9727
ltibia 48.7584
lfoot -31.5529 7.04163
ltoes -6.8671
659
root 8.58371 16.1763 -4.03687 -177.437 75.4628 -181.336
lowerback 2.30179 -0.854895 -0.30868
upperback 2.80961 -1.07729 3.99738
thorax 1.68106 -0.541571 4.30388
lowerneck -5.21424 -12.2034 -2.75389
upperneck 18.962 -16.5781 3.28393
head 7.18158 -7.71721 0.180881
rclavicle -9.74045e-015 -2.54444e-014
rhumerus 14.6394 23.8417 -83.7489
rradius 133.075
rwrist -40.1209
rhand -25.4893 -18.4602
rfingers 7.12502
rthumb 1.03903 311.563
lclavicle -9.74045e-015 -2.54444e-014
lhumerus -34.5939 -21.5027 86.6387
lradius 43.7253
lwrist 15.8298
lhand -12.5536 4.40482
lfingers 7.12502
lthumb 13.5235 33.9457
rfemur -39.5219 0.498969 6.68967
rtibia 69.8313
rfoot 14.9207 -7.1736
rtoes -33.9721
lfemur -20.3554 -8.58337 -22.043
ltibia 48.9531
lfoot -31.5842 7.46108
ltoes -6.94425
660
root 8.54752 16.1634 -4.04144 -177.403 76.6898 -181.386
lowerback 1.96234 -0.823946 -0.265218
upperback 2.67705 -1.04641 3.92441
thorax 1.72975 -0.527391 4.19856
lowerneck -5.23755 -12.2052 -2.67876
upperneck 19.0123 -16.5866 3.21938
head 7.18998 -7.72138 0.146925
rclavicle -4.57205e-015 -2.8625e-014
rhumerus 14.6715 23.8033 -83.7572
rradius 133.103
rwrist -40.4216
rhand -25.4291 -18.7068
rfingers 7.12502
rthumb 1.09713 311.316
lclavicle -4.57205e-015 -2.8625e-014
lhumerus -34.32 -21.6465 86.6143
lradius 43.8927
lwrist 16.431
lhand -12.9295 4.27331
lfingers 7.12502
lthumb 13.1612 33.8379
rfemur -38.4388 1.13145 6.82701
rtibia 68.1677
rfoot 12.0833 -7.97035
rtoes -38.0111
lfemur -20.5577 -7.85474 -22.1206
ltibia 49.1351
lfoot -31.5902 7.96465
ltoes -6.95792
661
root 8.50772 16.154 -4.04815 -177.319 78.1497 -181.406
lowerback 1.68493 -0.774928 -0.210974
upperback 2.55284 -0.989726 3.84147
thorax 1.7502 -0.49957 4.07792
lowerneck -5.26275 -12.1867 -2.59577
upperneck 19.0322 -16.5698 3.1625
head 7.18793 -7.71412 0.117305
rclavicle -1.25234e-014 -2.22639e-014
rhumerus 14.786 23.836 -83.7471
rradius 133.087
rwrist -40.7605
rhand -25.3861 -18.9556
rfingers 7.12502
rthumb 1.13871 311.068
lclavicle -1.25234e-014 -2.22639e-014
lhumerus -34.1706 -21.7981 86.6464
lradius 44.1472
lwrist 17.1216
lhand -13.2771 4.19432
lfingers 7.12502
lthumb 12.826 33.7803
rfemur -37.5488 1.7335 7.05135
rtibia 66.5487
rfoot 9.04214 -9.06861
rtoes -40.1103
lfemur -20.7599 -7.01061 -22.2015
ltibia 49.2769
lfoot -31.5589 8.5146
ltoes -6.88717
